<svg width="32" height="33" viewBox="0 0 32 33" fill="none" xmlns="http://www.w3.org/2000/svg">
<g id="behance-svgrepo-com 2" clip-path="url(#clip0_1509_97)">
<path id="Vector" d="M16 32.3555C24.8366 32.3555 32 25.1921 32 16.3555C32 7.51897 24.8366 0.35553 16 0.35553C7.16344 0.35553 0 7.51897 0 16.3555C0 25.1921 7.16344 32.3555 16 32.3555Z" fill="#3A67FA"/>
<path id="Vector_2" d="M31.0764 21.7214L23.818 14.463L18.2983 15.3115L14.0239 11.4825L8.17031 12.2971L6.9375 21.7402L16.9146 32.3289C23.4691 31.9592 28.9681 27.6447 31.0764 21.7214Z" fill="#2451D1"/>
<path id="Vector_3" d="M14.5954 15.4537C14.9124 14.9602 15.0936 14.3715 15.083 13.7403C15.0551 12.0512 13.6494 10.709 11.9601 10.709H7.24369C7.02281 10.709 6.84375 10.8881 6.84375 11.109V21.481C6.84375 21.7019 7.02281 21.8809 7.24369 21.8809H12.5122C14.4675 21.8809 16.0874 20.3135 16.0951 18.3582C16.1002 17.1599 15.5057 16.0975 14.5954 15.4537ZM8.91281 12.7782H12.0004C12.5595 12.7782 13.0145 13.233 13.0145 13.7922C13.0145 14.3513 12.5595 14.8062 12.0004 14.8062H8.91281V12.7782ZM12.558 19.8118H8.91281V16.8754H12.558C13.3676 16.8754 14.0263 17.5342 14.0263 18.3436C14.0261 19.1532 13.3676 19.8118 12.558 19.8118Z" fill="white"/>
<g id="Group">
<path id="Vector_4" d="M25.1581 17.6224C25.1581 15.2074 23.2547 13.2425 20.9149 13.2425C18.5751 13.2425 16.6716 15.2074 16.6716 17.6224C16.6716 20.0376 18.5753 22.0023 20.9149 22.0023C22.3346 22.0023 23.6538 21.2746 24.4439 20.0556C24.5423 19.9034 24.6318 19.7446 24.7112 19.5809C24.7688 19.4621 24.6813 19.3237 24.5493 19.3236L22.4634 19.3184C22.4174 19.3184 22.3735 19.3371 22.3405 19.3693C21.9466 19.7522 21.4638 19.9334 20.9151 19.9334C19.8784 19.9334 19.0095 19.1581 18.7931 18.1246H24.7431C24.9723 18.1246 25.1582 17.9386 25.1582 17.7092V17.6224H25.1581V17.6224ZM20.9149 15.3116C21.674 15.3116 22.3432 15.7278 22.7321 16.3563H19.0975C19.4866 15.7279 20.1557 15.3116 20.9149 15.3116Z" fill="#D1D1D1"/>
<path id="Vector_5" d="M22.679 12.7286H18.9153C18.7398 12.7286 18.5974 12.5861 18.5974 12.4106V11.4666C18.5974 11.2911 18.7398 11.1486 18.9153 11.1486H22.679C22.8545 11.1486 22.9967 11.2911 22.9967 11.4666V12.4106C22.9968 12.5864 22.8545 12.7286 22.679 12.7286Z" fill="#D1D1D1"/>
</g>
</g>
<defs>
<clipPath id="clip0_1509_97">
<rect width="32" height="32" fill="white" transform="translate(0 0.35553)"/>
</clipPath>
</defs>
</svg>
