<svg width="32" height="33" viewBox="0 0 32 33" fill="none" xmlns="http://www.w3.org/2000/svg">
<g id="dribbble-seeklogo.com 1" clip-path="url(#clip0_1509_104)">
<g id="Group">
<path id="Vector" d="M15.9992 1.0625C24.2492 1.0625 30.9242 7.7375 30.9242 15.975C30.9242 24.2125 24.2492 30.9 15.9992 30.9C7.74922 30.9 1.07422 24.225 1.07422 15.9875C1.07422 7.75 7.74922 1.0625 15.9992 1.0625Z" fill="#E74D89"/>
<path id="Vector_2" d="M16 32.6736C7.175 32.6736 0 25.5111 0 16.6986C0 7.87362 7.175 0.711121 16 0.711121C24.825 0.711121 32 7.87362 32 16.6861C32 25.4986 24.825 32.6736 16 32.6736ZM29.4875 18.8736C29.025 18.7236 25.2625 17.6111 20.975 18.2861C22.7625 23.1861 23.4875 27.1861 23.625 28.0111C26.7 25.9486 28.8875 22.6736 29.4875 18.8736ZM21.3375 29.2736C21.1375 28.0736 20.3375 23.8986 18.425 18.9236C18.4 18.9361 18.3625 18.9486 18.3375 18.9486C10.625 21.6361 7.8625 26.9736 7.6125 27.4736C9.925 29.2736 12.8375 30.3486 16 30.3486C17.8875 30.3611 19.7 29.9736 21.3375 29.2736ZM5.85 25.8361C6.1625 25.3111 9.9125 19.1111 16.9625 16.8236C17.1375 16.7611 17.325 16.7111 17.5 16.6611C17.1625 15.8861 16.7875 15.1111 16.3875 14.3486C9.5625 16.3861 2.9375 16.2986 2.3375 16.2861C2.3375 16.4236 2.325 16.5611 2.325 16.6986C2.3375 20.2111 3.6625 23.4111 5.85 25.8361ZM2.625 13.9111C3.2375 13.9236 8.8625 13.9486 15.2625 12.2486C13 8.22362 10.55 4.84862 10.2 4.36112C6.3625 6.16112 3.5125 9.68612 2.625 13.9111ZM12.8 3.43612C13.175 3.93612 15.6625 7.31112 17.9 11.4236C22.7625 9.59862 24.8125 6.84862 25.0625 6.49862C22.65 4.36112 19.475 3.06112 16 3.06112C14.9 3.06112 13.825 3.19862 12.8 3.43612ZM26.575 8.07362C26.2875 8.46112 24 11.3986 18.95 13.4611C19.2625 14.1111 19.575 14.7736 19.8625 15.4361C19.9625 15.6736 20.0625 15.9111 20.1625 16.1361C24.7125 15.5611 29.225 16.4861 29.675 16.5736C29.6375 13.3611 28.4875 10.3986 26.575 8.07362Z" fill="#B2215A"/>
</g>
</g>
<defs>
<clipPath id="clip0_1509_104">
<rect width="32" height="32.7111" fill="white"/>
</clipPath>
</defs>
</svg>
