<svg width="18" height="18" viewBox="0 0 18 18" fill="none" xmlns="http://www.w3.org/2000/svg">
<path id="Vector" fill-rule="evenodd" clip-rule="evenodd" d="M11.6067 0.85553C16.3667 0.85553 17.5 1.98886 17.5 6.74886V11.9622C17.5 16.7222 16.3667 17.8555 11.6067 17.8555H6.39333C1.63333 17.8555 0.5 16.7222 0.5 11.9622V6.74886C0.5 1.98886 1.63333 0.85553 6.39333 0.85553H11.6067ZM5.10417 6.16803H3.86458C3.51042 6.16803 3.43958 6.33803 3.43958 6.51511C3.43958 6.84803 3.8575 8.4772 5.39458 10.6305C5.80122 11.2803 6.35599 11.8244 7.01346 12.2184C7.67093 12.6124 8.41238 12.845 9.17708 12.8972C9.96333 12.8972 10.0625 12.7201 10.0625 12.4155V11.3034C10.0625 10.9493 10.1404 10.8784 10.3883 10.8784C10.6362 10.8784 10.8842 10.9705 11.6208 11.6789C12.4637 12.5218 12.5983 12.8972 13.0729 12.8972H14.3125C14.6667 12.8972 14.8438 12.7201 14.7446 12.373C14.4807 11.8327 14.1261 11.3415 13.6962 10.9209C13.4058 10.5739 12.9879 10.2126 12.8392 10.0284C12.6904 9.84428 12.7117 9.68136 12.8392 9.47595C13.4956 8.59363 14.0559 7.64381 14.5108 6.64261C14.5887 6.38053 14.5108 6.18928 14.1354 6.18928H12.8958C12.781 6.18297 12.667 6.21313 12.5704 6.27547C12.4737 6.33781 12.3992 6.42913 12.3575 6.53636C11.9734 7.44994 11.4605 8.30387 10.8346 9.0722C10.5442 9.36261 10.4096 9.4547 10.2537 9.4547C10.0979 9.4547 10.0625 9.36261 10.0625 9.10053V6.62136C10.0625 6.3097 9.97042 6.16803 9.70833 6.16803H7.76042C7.68077 6.16413 7.60278 6.19163 7.54318 6.2446C7.48358 6.29758 7.44713 6.37181 7.44167 6.45136C7.44167 6.74886 7.895 6.8197 7.9375 7.66261V9.48303C7.9375 9.88678 7.86667 9.95761 7.71083 9.95761C7.28583 9.95761 6.29417 8.41345 5.65667 6.6497C5.54333 6.3097 5.45833 6.16803 5.10417 6.16803Z" fill="white"/>
</svg>
