<svg width="48" height="42" viewBox="0 0 48 42" fill="none" xmlns="http://www.w3.org/2000/svg">
<g id="Group">
<path id="Vector" fill-rule="evenodd" clip-rule="evenodd" d="M27.2551 15.8491C26.6777 18.7124 24.8219 19.9122 22.0484 19.9525C19.4811 19.9929 17.883 17.311 17.6149 15.093C17.3365 12.8043 18.3469 9.87043 20.6874 8.96303C21.9968 8.45893 23.7599 8.47909 24.925 9.29574C27.1314 10.8484 27.7603 13.3588 27.2551 15.8491ZM21.7803 4.14378C19.0893 4.416 16.8725 5.41413 15.0682 7.41039C14.3877 8.16655 13.202 9.55788 13.3051 10.5963C13.4804 12.4212 13.9134 15.6878 13.9134 17.4118C13.9134 19.64 13.2845 19.146 14.9342 21.0212C17.2334 23.6224 20.4296 24.8525 23.9558 24.3786C29.3791 23.6628 33.1836 18.4806 32.5341 13.2278C32.1938 10.4854 31.2453 8.56983 29.2038 6.65423C27.3582 4.92011 24.3167 3.88165 21.7803 4.14378Z" fill="#F86161"/>
<path id="Vector_2" fill-rule="evenodd" clip-rule="evenodd" d="M5.15005 0.52427C5.4903 4.70835 5.91302 9.43686 6.46979 13.6008C6.61413 14.6796 7.16058 18.4301 6.15016 19.1661C4.59329 20.2852 3.89218 18.3293 3.4179 17.5126C3.14983 17.6034 0.695953 20.6179 0.221674 21.0716C-0.0979489 21.3741 -0.0257761 21.3338 0.149501 21.5052C0.335089 21.6866 0.634091 22.1605 1.27334 22.6747C2.78897 23.8845 4.19118 24.4391 6.17078 24.4491C9.57322 24.4592 12.2539 22.5235 12.8519 19.1661C12.9241 18.7326 12.9138 18.3898 12.9963 17.9966C13.4293 16.0406 11.6044 2.85324 11.3054 0L5.15005 0.52427Z" fill="#F86161"/>
<path id="Vector_3" fill-rule="evenodd" clip-rule="evenodd" d="M31.3186 23.2997C32.8857 23.6123 35.185 24.2172 36.6903 24.3382L37.0202 22.7553C37.113 22.1 37.5151 20.3154 37.6595 19.5694C37.7935 18.8535 38.5462 14.9417 38.6493 14.7804C38.8142 14.5182 39.7215 13.5907 40.0412 13.2882C41.031 12.3506 47.4131 5.72661 48.0008 4.72848C47.6709 4.72848 47.8255 4.7184 47.609 4.65791C46.547 4.48651 41.7424 3.46822 41.5465 3.57912C41 4.27479 37.0821 9.76954 36.7728 9.83004C36.5356 8.87224 35.0715 2.6314 34.7725 2.27853C34.6694 2.16763 34.5354 2.15754 34.4014 2.14746L28.9162 1.12917C28.6585 1.05859 28.741 1.05859 28.4316 1.05859C28.4832 1.35098 28.7925 2.09705 28.9162 2.39952C29.4008 3.55896 30.0091 5.23259 30.4525 6.42228C30.5556 6.70458 31.566 7.86402 31.999 8.57985C32.5043 9.41667 32.8548 10.2737 33.1126 11.2012C33.36 12.2296 33.6281 13.3689 33.5765 14.4174C33.525 15.597 33.3085 16.4338 33.061 17.5832C32.7414 18.793 32.1331 19.6903 31.999 20.2045C31.8031 20.7893 31.4732 22.9267 31.3186 23.2997Z" fill="#F86161"/>
<path id="Vector_4" fill-rule="evenodd" clip-rule="evenodd" d="M7.6041 38.4328V30.4175C9.24345 30.4175 10.7797 30.4478 11.8417 31.7585C12.6871 32.7969 12.8212 35.9929 11.8932 37.0616C11.6561 37.3339 11.7901 37.2633 11.3365 37.6464C11.0375 37.9085 10.5941 38.0598 10.2229 38.1908C9.37749 38.4631 8.47017 38.4328 7.6041 38.4328ZM3.60365 27.0904L3.57272 30.4074C3.57272 33.7749 3.51086 37.4246 3.57272 40.7315C3.59334 41.9918 2.97472 41.8204 5.98536 41.8204C7.35665 41.8204 8.91352 41.9011 10.2642 41.6994C11.9963 41.4474 13.1614 41.1046 14.5327 39.8544C15.739 38.7554 16.5742 36.5676 16.5948 34.9847C16.6257 32.9481 16.337 31.2543 15.0688 29.5807C14.0378 28.2398 12.1819 27.3425 10.5013 27.161C8.81041 26.9795 7.07826 26.9997 5.38736 26.9997L3.60365 27.0904Z" fill="black"/>
<path id="Vector_5" fill-rule="evenodd" clip-rule="evenodd" d="M18.7698 27.0607V41.831C19.7493 41.831 27.3068 41.8814 27.5852 41.8007C27.6677 41.5386 27.647 38.7358 27.5646 38.4333H22.6568V36.0741H27.2862C27.4305 35.4893 27.3584 33.5536 27.3274 32.7671H26.781H22.6568C22.6568 32.3639 22.5949 30.6398 22.6877 30.3978C22.9558 30.3071 26.9253 30.3676 27.5646 30.3676C27.6677 29.9744 27.6677 27.4135 27.5646 27.0203C26.4923 27.0203 19.1203 26.9296 18.7698 27.0607Z" fill="black"/>
<path id="Vector_6" fill-rule="evenodd" clip-rule="evenodd" d="M35.7613 41.8305H38.8441C38.9988 41.1247 43.1229 31.4056 43.6797 29.8731L44.7932 27.0703C44.3602 26.9694 41.5248 27.0299 40.8547 27.0299C40.5041 27.0299 40.5453 27.2013 40.401 27.5844C40.3907 27.6147 40.3494 27.7155 40.3391 27.7458C39.37 30.6595 38.308 34.1781 37.2666 36.9709C36.3902 33.6539 35.1324 30.3369 33.9879 27.0904C33.6271 26.9392 30.4411 27.0299 29.7813 27.0299C29.771 27.3425 35.2252 40.5097 35.7613 41.8305Z" fill="black"/>
</g>
</svg>
