<svg width="9" height="10" viewBox="0 0 9 10" fill="none" xmlns="http://www.w3.org/2000/svg">
<g id="copyright-symbol_icon-icons.com_70218 1" clip-path="url(#clip0_1509_147)">
<g id="Vector">
<mask id="path-1-inside-1_1509_147" fill="white">
<path d="M4.5 1.55487C6.525 1.55487 8.15625 3.18612 8.15625 5.21112C8.15625 7.23612 6.525 8.86737 4.5 8.86737C2.475 8.86737 0.84375 7.23612 0.84375 5.21112C0.84375 3.18612 2.475 1.55487 4.5 1.55487ZM4.5 0.711121C2.025 0.711121 0 2.73612 0 5.21112C0 7.68612 2.025 9.71112 4.5 9.71112C6.975 9.71112 9 7.68612 9 5.21112C9 2.73612 6.975 0.711121 4.5 0.711121Z"/>
</mask>
<path d="M4.5 1.55487C6.525 1.55487 8.15625 3.18612 8.15625 5.21112C8.15625 7.23612 6.525 8.86737 4.5 8.86737C2.475 8.86737 0.84375 7.23612 0.84375 5.21112C0.84375 3.18612 2.475 1.55487 4.5 1.55487ZM4.5 0.711121C2.025 0.711121 0 2.73612 0 5.21112C0 7.68612 2.025 9.71112 4.5 9.71112C6.975 9.71112 9 7.68612 9 5.21112C9 2.73612 6.975 0.711121 4.5 0.711121Z" fill="black"/>
<path d="M4.5 2.55487C5.97272 2.55487 7.15625 3.73841 7.15625 5.21112H9.15625C9.15625 2.63384 7.07728 0.554871 4.5 0.554871V2.55487ZM7.15625 5.21112C7.15625 6.68384 5.97272 7.86737 4.5 7.86737V9.86737C7.07728 9.86737 9.15625 7.78841 9.15625 5.21112H7.15625ZM4.5 7.86737C3.02728 7.86737 1.84375 6.68384 1.84375 5.21112H-0.15625C-0.15625 7.78841 1.92272 9.86737 4.5 9.86737V7.86737ZM1.84375 5.21112C1.84375 3.73841 3.02728 2.55487 4.5 2.55487V0.554871C1.92272 0.554871 -0.15625 2.63384 -0.15625 5.21112H1.84375ZM4.5 -0.288879C1.47272 -0.288879 -1 2.18384 -1 5.21112H1C1 3.28841 2.57728 1.71112 4.5 1.71112V-0.288879ZM-1 5.21112C-1 8.23841 1.47272 10.7111 4.5 10.7111V8.71112C2.57728 8.71112 1 7.13384 1 5.21112H-1ZM4.5 10.7111C7.52728 10.7111 10 8.23841 10 5.21112H8C8 7.13384 6.42272 8.71112 4.5 8.71112V10.7111ZM10 5.21112C10 2.18384 7.52728 -0.288879 4.5 -0.288879V1.71112C6.42272 1.71112 8 3.28841 8 5.21112H10Z" fill="black" mask="url(#path-1-inside-1_1509_147)"/>
</g>
<path id="Vector_2" d="M5.56875 6.50487C5.2875 6.72987 4.89375 6.89862 4.5 6.89862C3.54375 6.89862 2.8125 6.16737 2.8125 5.21112C2.8125 4.25487 3.54375 3.52362 4.5 3.52362C4.95 3.52362 5.4 3.69237 5.68125 4.02987L6.3 3.41112C5.85 2.96112 5.175 2.67987 4.5 2.67987C3.09375 2.67987 1.96875 3.80487 1.96875 5.21112C1.96875 6.61737 3.09375 7.74237 4.5 7.74237C5.11875 7.74237 5.625 7.51737 6.075 7.17987L5.56875 6.50487Z" fill="black"/>
</g>
<defs>
<clipPath id="clip0_1509_147">
<rect width="9" height="9" fill="white" transform="translate(0 0.711121)"/>
</clipPath>
</defs>
</svg>
