<svg width="24" height="26" viewBox="0 0 24 26" fill="none" xmlns="http://www.w3.org/2000/svg">
<path id="Vector" fill-rule="evenodd" clip-rule="evenodd" d="M15.056 14.4423C15.1379 14.4749 15.2264 14.5074 15.3188 14.5412C15.3553 14.4332 15.3852 14.3057 15.3995 14.1625C15.2746 14.1612 15.1523 14.1586 15.0338 14.1547C15.0417 14.2549 15.0495 14.3538 15.056 14.4423ZM11.0648 4.47414C11.5307 4.59256 12.1579 4.7266 12.6264 4.73441C11.7935 3.59835 10.4349 3.33548 9.19998 3.67122C10.0172 3.8495 10.6197 4.1371 11.0648 4.47414ZM13.156 4.64201C12.9934 4.37915 12.7669 4.09806 12.452 3.8443C12.4806 3.81046 12.5171 3.76622 12.5574 3.71547C13.0064 3.8482 13.3551 4.02128 13.6245 4.20347C13.4957 4.38565 13.3382 4.54832 13.156 4.64201ZM13.8392 3.843C13.985 3.5541 14.0591 3.30555 14.0604 3.30425C14.0552 3.32767 14.0162 3.58013 13.8887 3.87683C14.1411 4.05251 14.335 4.2347 14.4808 4.40257C14.6994 4.18525 15.0703 3.73889 15.0872 3.20535C15.1106 2.48701 14.5563 2.43105 14.555 2.43105C14.5094 2.42585 14.4769 2.38551 14.4821 2.33996C14.4873 2.29441 14.5276 2.26188 14.5732 2.26709C14.5758 2.26709 15.2785 2.33736 15.2512 3.20925C15.2316 3.80786 14.8178 4.29846 14.5849 4.5288C14.646 4.60818 14.6955 4.68236 14.7358 4.74872L15.6845 4.05772C16.2194 3.28863 16.1829 2.49222 16.1829 2.48961C16.1816 2.44407 16.2168 2.40633 16.2623 2.40503C16.3078 2.40373 16.3456 2.43886 16.3469 2.48441C16.3469 2.48701 16.3755 3.11555 16.0216 3.81176L19.0875 1.57868L14.9675 5.27186C15.0729 5.56856 15.0846 5.83273 15.0573 6.08519L15.108 6.10341C16.0957 5.45404 17.2188 5.01289 17.2227 5.01159C17.2201 5.01289 16.4523 5.65575 15.5726 6.2882C15.7639 6.37018 15.9708 6.46518 16.1842 6.57579C16.3976 6.45347 16.7555 6.26738 17.1472 6.14115C17.4465 5.78198 17.6651 5.65185 17.6664 5.65054C17.6977 5.63102 17.738 5.64144 17.7575 5.67137C17.777 5.7026 17.7666 5.74294 17.7367 5.76246C17.7354 5.76246 17.5923 5.84835 17.3801 6.07478C17.4882 6.04875 17.5975 6.02793 17.7055 6.01622C17.9358 5.99149 18.1115 6.01882 18.2442 6.07478C18.3509 5.94204 18.4433 5.8015 18.511 5.65315C18.8415 4.92961 18.2898 5.24453 18.2872 5.24583C18.2559 5.26405 18.2156 5.25234 18.1974 5.22111C18.1792 5.18987 18.1909 5.14953 18.2221 5.13131C18.2247 5.13001 19.1291 4.61469 18.6294 5.7078C18.5604 5.85876 18.4681 6.0019 18.3613 6.13724C18.6333 6.31683 18.6646 6.61743 18.6646 6.61873C18.6698 6.66428 18.6372 6.70462 18.5917 6.70983C18.5461 6.71503 18.5058 6.6825 18.5006 6.63695C18.5006 6.63565 18.4772 6.40271 18.252 6.26738C17.8942 6.66819 17.4296 6.9792 17.1407 7.15228C17.656 7.51535 18.1453 7.96431 18.4993 8.50957C19.0484 8.0476 19.5338 7.92917 19.6861 8.73209L19.6874 8.7347L19.6965 8.78415C19.7355 8.72429 19.7733 8.66703 19.8123 8.61107C19.9164 8.46142 20.0153 8.36122 20.1064 8.29745C20.122 8.2519 20.1299 8.22588 20.1299 8.22588C20.1403 8.19074 20.178 8.17122 20.2118 8.18293C20.2327 8.18944 20.247 8.20506 20.2535 8.22327C20.6543 8.09835 20.8937 8.65922 20.895 8.66052C20.9093 8.69306 20.895 8.73209 20.8612 8.74771C20.8287 8.76203 20.7896 8.74771 20.774 8.71388C20.7727 8.71257 20.5606 8.21547 20.2066 8.40286C20.139 8.58504 19.9945 8.9286 19.7577 9.31119C19.7915 9.78227 19.7824 10.472 19.5534 11.1161L19.5872 11.1344C19.5521 11.1994 19.5143 11.258 19.4753 11.3126C19.3816 11.5261 19.2619 11.7304 19.1083 11.9178C18.403 12.7727 17.5753 12.9822 17.1563 13.0317C17.1954 13.2646 17.1993 13.5314 17.1485 13.8333C17.6222 13.8268 18.1128 13.8164 18.5891 13.7995C19.3829 13.7708 20.1325 13.7227 20.6868 13.6485C21.0525 13.5991 21.2581 13.5288 21.357 13.4611C21.2477 13.4702 20.6998 13.4507 21.0642 13.2243C21.236 13.1163 21.4247 13.1124 21.5496 13.1657C21.6407 13.2048 21.7058 13.2724 21.7292 13.3609C21.7526 13.4494 21.7331 13.547 21.6524 13.6381C21.5392 13.7656 21.2633 13.9036 20.7311 13.9752C20.1676 14.0506 19.4063 14.0988 18.6008 14.1287C18.0972 14.1469 17.5753 14.1573 17.0743 14.1638C16.9819 14.4788 16.844 14.7416 16.6865 14.959C17.4543 15.1464 18.3548 15.2895 19.31 15.2895C22.0571 15.2895 23.4183 14.7963 23.4183 14.7963C23.4183 14.7963 21.7786 15.6291 19.7447 15.7111C19.6796 15.9285 19.4805 16.2603 18.8689 16.2603C18.2195 16.2603 17.3255 15.8178 16.8687 15.5654C17.2734 16.1445 17.3242 16.9331 17.3242 16.9357C17.3281 16.9812 17.293 17.0203 17.2487 17.0242C17.2032 17.0281 17.1641 16.9929 17.1602 16.9487C17.1602 16.9461 17.0899 15.8751 16.4731 15.3767L16.3378 15.3507C16.1022 15.568 15.8667 15.7111 15.6975 15.797L17.6417 18.1277L17.4725 18.2774L15.4854 16.0378C15.4477 16.0755 15.4034 16.1171 15.354 16.1614C15.2186 16.4308 14.9935 16.8003 14.633 17.2012C14.905 17.2584 15.3331 17.4185 15.6949 17.8635C16.2961 18.6027 15.5323 19.252 15.531 19.2533L15.4724 19.1961C15.4737 19.1948 16.0762 18.591 15.5687 17.9663C15.1861 17.4953 14.7254 17.3742 14.5016 17.343C14.3402 17.5109 14.1541 17.6839 13.9407 17.8557C14.1151 18.1173 14.2869 18.4101 14.3845 18.6743C14.4626 18.8851 14.5172 19.1375 14.5094 19.3861C14.4834 20.2463 13.6987 20.5274 12.9348 20.5039C12.7227 20.4974 12.5054 20.4597 12.2893 20.3998C12.396 20.8813 12.4533 21.4643 12.3973 22.1423C12.2021 24.4977 10.189 24.3429 10.1825 24.3442C10.1877 24.3442 12.0616 24.2049 12.2334 22.1293C12.2919 21.4253 12.21 20.8228 12.0746 20.3322C11.7311 20.215 11.3927 20.0459 11.0765 19.8585C10.9386 20.0875 10.7108 20.2593 10.3373 20.2489C10.2528 20.2463 10.1708 20.232 10.0927 20.2085C9.92482 20.2567 9.72311 20.2241 9.48367 20.0615C9.3158 19.9483 9.17655 19.8129 9.05813 19.6711C8.7341 20.15 8.39706 20.6341 8.05351 21.1103C7.99885 22.167 7.90255 23.1886 7.73858 24.0058C7.49914 25.2043 7.28182 26.0554 6.62855 25.8147C7.01114 25.8914 7.30004 25.1705 7.50174 24.1646C7.6566 23.3942 7.7555 22.4338 7.81797 21.4331C7.31825 22.1111 6.80813 22.7643 6.30452 23.3486C5.92713 23.7859 5.47557 24.257 5.05784 24.3858C5.95186 23.536 6.91875 22.3388 7.84009 21.07C7.86612 20.5898 7.88433 20.1044 7.89735 19.6307C7.00333 20.8202 6.05596 21.9861 5.20099 22.8515C1.92554 25.9005 4.16904 21.882 4.31999 22.0525C4.31609 22.0603 2.91065 24.7306 5.0162 22.603C5.92323 21.6855 6.94868 20.4428 7.90776 19.2026L7.90906 19.1063C7.69174 19.0608 7.4627 19.0022 7.23497 18.9293C7.14258 19.036 7.05148 19.1375 6.96559 19.2338C6.73916 20.3361 6.03124 21.1442 6.02864 21.1468C5.99871 21.1806 5.94665 21.1845 5.91282 21.1546C5.87898 21.1247 5.87508 21.0726 5.90501 21.0388C5.90761 21.0362 6.46588 20.3972 6.73266 19.4902C6.64286 19.5878 6.55828 19.6789 6.4802 19.7609C5.61742 20.9646 5.27256 20.5482 5.14894 20.4272C5.11901 20.3933 5.12291 20.3413 5.15805 20.3113C5.19318 20.2814 5.24393 20.2853 5.27387 20.3204C5.27517 20.3204 5.47948 20.5781 6.36178 19.6477C6.49581 19.5058 6.64807 19.3405 6.81334 19.1571C6.83546 19.0386 6.85238 18.9163 6.86149 18.7914L6.78211 18.7575C6.4841 18.9553 6.06898 19.0842 5.48989 19.0373C5.41311 19.0308 5.33893 19.0217 5.26736 19.0113C5.1086 19.2416 4.88477 19.4082 4.62841 19.5058C4.34341 19.6138 4.01938 19.6372 3.70446 19.5709C3.38954 19.5045 3.08243 19.347 2.82997 19.0946C2.54237 18.807 2.32635 18.3945 2.25348 17.8505C2.10513 16.7444 2.65819 16.1341 3.17352 15.8113C3.07722 15.5784 3.02647 15.4066 3.01085 15.352C2.91846 15.2791 2.82606 15.2023 2.73497 15.1242L2.68812 15.1372C2.68812 15.1372 2.68162 15.1125 2.67251 15.0696C2.59182 14.9993 2.51244 14.9264 2.43436 14.8523L2.43306 14.8536L2.42265 14.8418C1.97499 14.4111 1.60021 13.927 1.4922 13.4507C1.33214 12.7402 1.71343 12.139 2.14156 11.7134L2.15328 11.7004C2.2782 11.5768 2.40834 11.4675 2.52806 11.3751C2.58141 11.0237 2.68031 10.7127 2.80394 10.4381C2.75449 10.0621 2.73107 9.67426 2.74668 9.28646C2.75319 9.10037 2.77011 8.91428 2.79483 8.73079C2.63997 8.76723 2.47991 8.82059 2.31724 8.89476C2.11684 8.98455 1.95547 9.08606 1.82534 9.19407C1.57548 9.40358 1.44926 9.63782 1.40631 9.86425C1.3998 9.90199 1.3946 9.94103 1.392 9.97877C1.46878 9.99178 1.54816 10.01 1.62494 10.0321C2.00102 10.1427 2.36019 10.3731 2.42916 10.6477C2.4695 10.8116 2.45518 10.9483 2.40183 11.0485C2.35889 11.1291 2.29252 11.1877 2.21184 11.2202C2.13636 11.2502 2.04917 11.258 1.95547 11.2411C1.80322 11.2137 1.63144 11.12 1.47528 10.9509C1.25145 10.9535 0.555242 10.9144 0.582569 10.3444C0.589076 10.1987 0.664553 10.0959 0.782974 10.0321C0.87667 9.98137 0.997694 9.95795 1.13043 9.95665C1.13433 9.9098 1.13954 9.86295 1.14865 9.8148C1.202 9.53111 1.35556 9.24222 1.65747 8.99106C1.80452 8.86873 1.9867 8.75422 2.20923 8.65401C2.42655 8.55642 2.63997 8.49135 2.84298 8.45101C2.97311 7.79514 3.23989 7.1679 3.70316 6.62654C3.38433 6.32203 2.90935 5.93814 2.22615 5.52952C3.10715 5.62061 3.68494 5.96547 4.0402 6.28169C4.35773 6.0006 4.69607 5.82102 5.04093 5.71821C5.15414 5.64274 5.26736 5.58157 5.37927 5.53212C5.1138 5.14693 4.50998 4.48455 3.20865 3.80005C4.84182 4.18395 5.55235 4.90228 5.84775 5.34864C5.85426 5.34343 5.86857 5.33302 5.88939 5.31871L5.8907 5.3174L5.892 5.3161L5.8946 5.3148L5.90631 5.30569L5.92974 5.29008C6.00391 5.20289 6.0911 5.10529 6.1913 4.99988C5.8959 4.57304 5.33112 3.93149 4.27965 3.20795C5.5055 3.5476 6.1887 4.15922 6.55828 4.64722C7.7503 3.58143 9.25463 3.02316 10.798 3.04528C11.5411 3.05699 12.1527 3.15459 12.6563 3.30294C13.0558 2.772 13.6024 1.91833 13.3812 1.45766C13.2445 1.17137 12.9855 1.0113 12.6836 1.02171C12.4052 1.03082 12.0889 1.11801 11.7831 1.26376C11.5007 1.3991 11.2288 1.58389 11.0049 1.80251C10.7642 2.03805 10.7069 2.24236 10.7512 2.39201C10.772 2.46359 10.8149 2.52345 10.8722 2.56899C10.9307 2.61584 11.0036 2.64707 11.0817 2.66139C11.83 2.78892 11.4656 1.85847 11.2756 2.22024C11.247 2.27359 11.1871 2.30482 11.1286 2.28661C10.5091 2.10442 12.2633 1.63204 11.6647 2.55858C11.5176 2.78632 11.273 2.86049 11.0544 2.82406C10.9503 2.80584 10.8514 2.76289 10.7707 2.69783C10.6887 2.63146 10.6249 2.54427 10.5937 2.43886C10.5338 2.23455 10.5989 1.97038 10.8891 1.68539C11.1259 1.45375 11.4135 1.25855 11.7115 1.11541C12.0369 0.96055 12.3752 0.866855 12.6771 0.856444C12.9895 0.846033 13.2653 0.924113 13.4501 1.11281C13.5061 1.17006 13.5542 1.23773 13.5907 1.31581C13.8353 1.82854 13.2705 2.75378 12.8294 3.3563C13.2406 3.49424 13.5711 3.66341 13.8392 3.843ZM13.687 4.24771L13.6844 4.25161C13.5451 4.45072 13.4046 4.64852 13.2237 4.75783C13.2562 4.81639 13.2862 4.87495 13.3135 4.93091C13.4944 5.00639 13.6818 5.10919 13.8522 5.2133C13.9303 5.26015 14.0045 5.3096 14.0748 5.35775L14.4144 5.04543C14.3168 4.85934 14.1047 4.54572 13.687 4.24771ZM12.0343 4.80858C11.869 4.8216 11.5905 4.92701 11.5489 4.9244C11.4721 4.83591 11.3875 4.75002 11.2938 4.66544C11.5294 4.71879 11.7857 4.77085 12.0343 4.80858ZM12.9738 17.451H13.0233L13.0077 17.4328L12.9738 17.451ZM13.1886 17.4445C13.2211 17.4419 13.2536 17.4393 13.2875 17.4354C13.2627 17.3964 13.2367 17.356 13.2094 17.3131C13.182 17.3313 13.1547 17.3495 13.1261 17.3664C13.1469 17.3924 13.1677 17.4185 13.1886 17.4445ZM13.428 17.4159L13.4566 17.4107C13.3994 17.3365 13.3499 17.2766 13.3174 17.2363L13.3148 17.2389C13.3564 17.3001 13.3955 17.3612 13.428 17.4159ZM13.5985 17.3768C13.7598 17.3313 13.9147 17.2623 14.0552 17.1634C14.145 17.0996 14.2257 17.0359 14.2973 16.9747C14.3819 16.8667 14.4587 16.7587 14.5276 16.6507C14.4613 16.6741 14.3936 16.6962 14.3207 16.7158L14.2478 16.734L14.2179 16.7626C14.0058 16.9591 13.7273 17.0879 13.4358 17.1725C13.4761 17.2207 13.5321 17.2909 13.5985 17.3768ZM13.454 17.7386L13.4072 17.7464L13.4501 17.8102L13.4762 17.7907L13.454 17.7386ZM13.2601 17.762C12.8554 17.7972 12.4598 17.7373 12.1657 17.6696C11.8664 17.6957 11.5723 17.6696 11.3055 17.6189C11.044 17.6813 10.7525 17.7451 10.4701 17.805C10.8618 18.1837 11.7779 18.9059 13.104 18.0522C13.1873 17.9989 13.2679 17.9429 13.346 17.887C13.3187 17.8492 13.2901 17.8063 13.2601 17.762ZM2.6621 14.294C2.6699 14.2667 2.67771 14.2393 2.68812 14.2133C2.72976 14.1066 2.78442 14.0337 2.84428 13.9817C2.75189 13.6941 2.6712 13.3909 2.60223 13.0681C2.54498 12.8014 2.50984 12.5476 2.49422 12.3095C2.39662 12.7988 2.33156 13.5054 2.5671 14.091C2.59443 14.1625 2.62696 14.2289 2.6621 14.294ZM2.97832 14.3695C2.94579 14.4749 2.94188 14.5998 2.94969 14.713C3.04469 14.8236 3.14619 14.9238 3.24639 15.011C3.19824 14.9082 3.1514 14.8028 3.10585 14.6935L3.07592 14.7C3.07592 14.6987 3.06421 14.6492 3.05249 14.5634C3.02777 14.4996 3.00304 14.4358 2.97832 14.3695ZM7.12175 6.62394C7.14388 6.65517 7.17511 6.6799 7.21935 6.69291C7.41195 6.75017 7.58112 6.63565 7.58112 6.63565C7.58112 6.63565 7.58112 6.86859 7.37942 6.89722C7.29874 6.90893 7.20504 6.89462 7.12045 6.8738C7.12826 6.94146 7.14258 7.00263 7.15819 7.05468C7.32867 7.04037 7.48352 7.03646 7.61366 7.03516C7.63968 6.86599 7.66441 6.6864 7.68913 6.50682C7.53948 6.43004 7.37942 6.35717 7.21285 6.2908C7.1621 6.41052 7.13347 6.52244 7.12175 6.62394ZM5.9909 6.92064C5.9909 6.92064 5.91282 6.60182 5.892 6.00451H5.87768C5.44954 6.51593 5.4053 7.16529 5.42612 7.55309C5.46646 7.52967 5.5081 7.50754 5.55105 7.48412C5.77878 7.3644 6.01953 7.27591 6.25767 7.21084C6.13795 6.95968 6.05987 6.59141 6.16398 6.07478C6.12494 6.13464 6.0872 6.20101 6.05596 6.27388C5.94665 6.52894 5.9909 6.92064 5.9909 6.92064ZM7.19983 5.68048C7.29093 5.57116 7.40935 5.43843 7.54339 5.30439C7.19463 5.29398 7.00463 5.36946 6.71183 5.47226C6.77039 5.49048 6.82765 5.5113 6.88621 5.53342C6.99162 5.57637 7.09573 5.62582 7.19983 5.68048ZM7.77893 5.53212C7.66701 5.64404 7.56681 5.75595 7.48483 5.85225C7.57201 5.90951 7.6579 5.97067 7.74379 6.03444C7.76071 5.87177 7.77242 5.71821 7.77763 5.58418L7.77893 5.53212ZM12.871 5.14042C12.7656 5.12481 12.6524 5.117 12.5392 5.1144C12.6771 5.15994 12.8073 5.212 12.9296 5.26795C12.9114 5.22761 12.8932 5.18467 12.871 5.14042ZM12.7227 6.42353C12.7487 6.24655 12.75 6.03183 12.7409 5.83794C12.5574 5.81321 12.3388 5.79629 12.0798 5.78979C12.2034 6.0956 12.2646 6.38449 12.2984 6.62394C12.4247 6.56798 12.573 6.49771 12.7227 6.42353ZM13.8952 16.799C13.8613 16.8042 13.8275 16.8082 13.795 16.8108C13.7637 16.8407 13.7325 16.8719 13.7 16.9018C13.7676 16.8719 13.834 16.8381 13.8952 16.799ZM14.7358 15.8243C14.8634 15.7411 14.9558 15.6565 15.0182 15.594C15.0794 15.3884 15.1106 15.214 15.121 15.0865L15.0716 15.0748C15.0091 15.201 14.9102 15.3845 14.7723 15.6018C14.7645 15.6734 14.7528 15.7476 14.7358 15.8243ZM10.8462 18.9723C10.8227 19.0816 10.7863 19.2312 10.7316 19.3887C10.8084 19.4433 10.8878 19.498 10.9685 19.5514C11.0401 19.3483 11.0544 19.1232 11.0557 18.971C10.9893 18.9723 10.919 18.9736 10.8462 18.9723ZM10.6549 19.5891C10.5859 19.7479 10.4974 19.9027 10.3881 20.0198C10.6262 20.0133 10.7811 19.8962 10.8813 19.7374C10.8032 19.6893 10.7277 19.6398 10.6549 19.5891ZM8.93581 19.5071C8.87465 19.4186 8.82129 19.3288 8.77444 19.2416C8.6313 19.226 8.44911 19.2039 8.2448 19.1688L8.11467 19.3444C8.10686 19.8064 8.09385 20.2788 8.07433 20.7499C8.36843 20.3374 8.65732 19.9209 8.93581 19.5071ZM8.64431 18.9632C8.62479 18.915 8.60787 18.8695 8.59226 18.8265C8.55452 18.8304 8.51808 18.8369 8.48425 18.8434L8.41918 18.9332C8.49856 18.9436 8.57404 18.954 8.64431 18.9632ZM6.94998 18.2474C6.8693 18.3255 6.79252 18.3893 6.72615 18.4387L6.75088 18.4504C6.82765 18.3867 6.89402 18.3177 6.94998 18.2474ZM6.15747 18.0561C6.2902 18.0314 6.43205 17.9702 6.54787 17.8388C6.60903 17.7685 6.65978 17.7009 6.70142 17.6371C6.3813 17.4913 6.0937 17.3144 5.84385 17.1322C5.73323 17.2597 5.62002 17.3911 5.5042 17.5304C5.73974 17.7334 5.96227 17.9065 6.15747 18.0561ZM5.08257 18.0444L5.02531 18.116C4.88737 18.2891 4.75724 18.4335 4.63621 18.5545C4.88737 18.6665 5.17887 18.7484 5.51331 18.7758C5.93364 18.8096 6.25507 18.738 6.49842 18.6144C6.47109 18.5988 6.44506 18.5832 6.41773 18.5676L6.41643 18.5754C5.83474 18.4296 5.58488 18.3359 5.08257 18.0444ZM2.08691 13.3609C2.05958 12.8768 2.13506 12.4071 2.21184 12.0765C2.07129 12.3563 2.02705 12.7675 2.06739 13.1957C2.07259 13.2503 2.0791 13.305 2.08691 13.3609ZM9.85585 4.57174C10.1031 4.68366 10.3178 4.8203 10.5052 4.97125C10.0276 5.05063 9.59688 5.22891 9.21429 5.46576C9.04772 5.3161 8.84732 5.18076 8.60787 5.06755C8.56233 5.04543 8.51678 5.02591 8.47123 5.00769C8.78355 4.77995 9.27676 4.52229 9.85585 4.57174ZM8.2422 4.76954C8.45432 4.61078 8.74712 4.4338 9.09587 4.32969C8.81609 4.27374 8.50897 4.24381 8.16933 4.24771C8.19535 4.38825 8.22138 4.56654 8.2422 4.76954ZM17.8903 8.49525C17.7836 8.49265 17.6404 8.51737 17.4855 8.62408C17.604 8.82319 17.699 9.03921 17.7627 9.27215C17.8864 9.1251 18.0126 8.98325 18.1401 8.85182C18.0646 8.72819 17.9801 8.60847 17.8903 8.49525ZM17.1459 9.0288C16.9533 9.40488 16.8609 9.93713 16.8206 10.2403C16.8206 10.2989 16.8206 10.3575 16.8167 10.4173C16.8154 10.459 16.8115 10.5006 16.8076 10.5422C16.9533 10.3288 17.142 10.0621 17.3541 9.78487C17.3307 9.50899 17.2578 9.25783 17.1459 9.0288ZM16.6748 9.35543C16.7451 9.1238 16.8362 8.89346 16.9559 8.70997C16.5109 8.07753 15.7704 7.64939 15.1132 7.37351C15.1393 7.44248 15.1666 7.51535 15.1926 7.59213C15.7027 7.91095 16.382 8.47703 16.6748 9.35543ZM17.3034 8.35471C17.4166 8.27663 17.5285 8.22848 17.6326 8.20115C16.8271 7.3644 15.6845 6.84386 14.9714 6.57839C14.9571 6.64346 14.9427 6.70853 14.9297 6.77489C15.6962 7.05598 16.693 7.55049 17.3034 8.35471ZM18.5774 11.6315C18.8493 11.5573 19.1604 11.3881 19.3647 11.0107L19.3842 11.0211C19.5547 10.5266 19.5898 10.0035 19.5794 9.58447C19.448 9.76795 19.2944 9.95274 19.1174 10.1284L19.0563 10.2586C19.0732 10.8546 18.8897 11.2996 18.5774 11.6315ZM19.0081 11.7356C18.7088 11.9021 18.3991 11.9399 18.1974 11.9438C17.8499 12.1676 17.4218 12.3108 16.9624 12.3979L16.9598 12.4253C16.9741 12.4539 16.9884 12.4825 17.0028 12.5125C17.3125 12.5788 17.8551 12.627 18.377 12.3446C18.5735 12.204 18.7726 12.0232 18.9626 11.7928C18.9782 11.7733 18.9938 11.7551 19.0081 11.7356ZM16.0437 13.4624C16.2545 13.3844 16.4796 13.2113 16.6059 12.843C16.5668 12.7324 16.5174 12.6348 16.4653 12.5515C16.438 12.5723 16.4093 12.5918 16.382 12.6114C16.3287 12.925 16.1946 13.2165 16.0437 13.4624ZM16.6683 11.7226C16.6488 11.6171 16.6228 11.5182 16.5941 11.4272C16.5447 11.5521 16.4874 11.6718 16.4263 11.7876C16.4549 11.8097 16.4874 11.8358 16.5239 11.8683C16.572 11.8215 16.6215 11.7733 16.6683 11.7226ZM16.7568 11.1174C16.7984 11.2215 16.8401 11.3413 16.8752 11.4727C16.965 11.3517 17.047 11.2202 17.116 11.0784C16.991 11.0953 16.8713 11.1083 16.7568 11.1174ZM16.693 13.2633C16.4653 13.6121 16.1426 13.7331 15.8901 13.7682C15.8927 13.7917 15.894 13.8151 15.8966 13.8385C16.1348 13.8398 16.3885 13.8385 16.6527 13.8372L16.6553 13.8255C16.6956 13.6173 16.7048 13.4299 16.693 13.2633ZM17.7731 12.6751C17.5012 12.7116 17.2526 12.6907 17.0626 12.6569C17.0847 12.7142 17.103 12.7753 17.1199 12.8378C17.2799 12.8222 17.5103 12.7792 17.7731 12.6751ZM13.6375 18.0887C13.6727 18.1381 13.6818 18.1784 13.674 18.2019C13.6961 18.2695 13.6687 18.2734 13.5985 18.2175C13.5777 18.2084 13.5542 18.1902 13.5295 18.1654C13.4488 18.2214 13.3655 18.2761 13.2783 18.3307C12.7071 18.6912 12.1644 18.8564 11.6855 18.9111C11.8222 19.1167 12.0668 19.5435 12.236 20.1747C12.465 20.2437 12.6954 20.2866 12.9218 20.2918C13.6232 20.3061 14.3545 20.2411 14.3806 19.3835C14.3871 19.1531 14.3363 18.9189 14.2635 18.7198C14.1711 18.4686 14.0084 18.1889 13.8405 17.9377C13.7755 17.9885 13.7078 18.0379 13.6375 18.0887ZM11.42 18.941C11.3823 18.9462 11.3368 18.9514 11.2847 18.9553C11.2847 19.1362 11.2652 19.4199 11.1676 19.6763C11.4331 19.8389 11.7168 19.9847 12.0043 20.0953C11.8117 19.5149 11.5554 19.1232 11.42 18.941ZM8.17453 18.859L8.12248 18.7888L8.12118 18.8825L8.15241 18.889L8.17453 18.859ZM8.98526 18.1459C9.16224 18.2539 9.34833 18.3372 9.48757 18.3216C9.63983 18.3047 9.75695 18.2188 9.84284 18.1251L9.98468 17.9026C9.68928 17.9598 9.43552 18.0054 9.28066 18.0262C9.20648 18.0366 9.12971 18.0444 9.05293 18.0509L8.98526 18.1459ZM6.39431 16.518C6.51013 16.6429 6.6754 16.8029 6.86409 16.9357C7.02155 16.8042 7.18552 16.6038 7.29613 16.3045L6.97601 15.9102C6.79902 16.0885 6.60383 16.2902 6.39431 16.518ZM7.37031 17.1699C7.559 17.2064 7.749 17.1777 7.92337 17.0385C7.92207 16.7522 7.91947 16.4932 7.91687 16.2694L7.81146 16.3319C7.70605 16.7106 7.54208 16.9799 7.37031 17.1699ZM8.11597 16.8667C8.2461 16.7405 8.3385 16.6247 8.40356 16.5219L8.12378 16.1458L8.10686 16.1562L8.11597 16.8667ZM8.48685 17.4224C8.60527 17.4471 8.88115 17.5018 9.15964 17.5421C9.28457 17.3703 9.40819 17.2025 9.52661 17.0398C9.36004 16.9708 9.17655 16.881 8.99307 16.7626C8.89547 16.894 8.79657 17.0242 8.69767 17.1543C8.62739 17.2428 8.55712 17.3326 8.48685 17.4224ZM9.39258 17.5707C9.52011 17.5837 9.63983 17.5916 9.73222 17.5863C9.76606 17.585 9.79989 17.5811 9.83503 17.5746C9.91961 17.5512 10.0016 17.5252 10.0836 17.4979C10.1734 17.4588 10.2554 17.4133 10.323 17.369L10.3543 17.3196C10.2632 17.2792 10.202 17.248 10.1773 17.235C10.1265 17.2259 9.94954 17.192 9.714 17.1088C9.6086 17.2597 9.50189 17.4133 9.39258 17.5707ZM6.68971 8.03458C6.60252 8.08013 6.51403 8.13218 6.42684 8.19204C6.21603 8.33519 6.05076 8.50046 5.92063 8.67223C6.04165 8.69566 6.17308 8.72429 6.31363 8.76203C6.43075 8.79326 6.54006 8.82319 6.64286 8.85312L6.78341 8.72559L6.68971 8.03458ZM9.9027 6.52113C10.1656 6.49251 10.595 6.45086 11.0765 6.42744C11.2535 6.41963 11.4018 6.41703 11.5242 6.41963C11.4552 6.22964 11.3615 6.02012 11.234 5.80931C10.5898 5.85095 10.1083 5.9993 9.75565 6.17238C9.81551 6.2908 9.86496 6.40792 9.9027 6.52113ZM11.5684 6.55106C11.4422 6.54716 11.2821 6.54846 11.0817 6.55887C10.8097 6.57189 10.5547 6.59141 10.336 6.60962C10.8566 6.63956 11.2821 6.73585 11.6244 6.75537C11.61 6.69161 11.5918 6.62394 11.5684 6.55106ZM2.84168 11.9945C2.88983 12.1038 2.85209 12.2301 2.75709 12.2951C2.77271 12.5216 2.80524 12.7597 2.8599 13.0135C2.92236 13.3037 2.99524 13.5796 3.07592 13.8398C3.13318 13.5535 3.26201 13.2373 3.52748 12.9666C3.40255 12.6881 3.26982 12.3498 3.1514 11.9711C2.80784 11.9256 2.84168 11.9945 2.84168 11.9945ZM2.77401 11.5482C2.84428 11.5339 2.92627 11.5247 3.02126 11.5221C3.00825 11.474 2.99654 11.4258 2.98483 11.3777C2.92496 11.4154 2.85469 11.4623 2.77791 11.5169L2.77401 11.5482ZM3.61727 11.5703C3.77213 11.595 3.94521 11.6315 4.13911 11.6783C4.05842 11.2476 4.05972 10.8832 4.12479 10.5761C4.21328 10.1544 4.42149 9.84343 4.70779 9.6209C4.68697 9.55844 4.66354 9.48166 4.64142 9.39577C4.17815 9.77967 3.63289 10.4655 3.61727 11.5703ZM4.49437 11.7746C4.56334 11.7954 4.62971 11.8149 4.69347 11.8358C4.67005 11.5182 4.7195 11.1174 4.95504 10.6672C5.0136 10.5566 5.07997 10.4577 5.15154 10.3705C5.14113 10.2547 5.12942 10.0152 5.16846 9.72111C5.13592 9.73672 5.10339 9.75364 5.07216 9.77186C4.76114 9.95014 4.53341 10.2312 4.44622 10.6437C4.38245 10.947 4.39156 11.3204 4.49437 11.7746ZM4.74422 12.368L4.65703 12.3381L4.67265 12.3823L4.74422 12.368ZM4.27314 12.2236C4.22369 12.2092 4.17164 12.1962 4.11828 12.1819C3.9348 12.1338 3.77864 12.096 3.6433 12.0661C3.65241 12.1403 3.66282 12.2171 3.67713 12.2951C3.73309 12.4435 3.78905 12.5827 3.845 12.7103C3.98945 12.6179 4.15732 12.5359 4.35513 12.4708C4.3252 12.3862 4.29787 12.3042 4.27314 12.2236ZM7.02415 18.8551L7.01635 18.9319L7.0697 18.8721L7.02415 18.8551ZM19.9919 8.59676C19.9698 8.62408 19.9464 8.65401 19.9242 8.68655C19.8592 8.78024 19.7941 8.87914 19.7303 8.98195C19.7342 9.01578 19.7395 9.05092 19.7434 9.08996C19.8488 8.90517 19.9307 8.736 19.9919 8.59676ZM19.5625 9.26564C19.4805 9.41139 19.4011 9.55714 19.3295 9.70028C19.418 9.59097 19.4987 9.47906 19.5703 9.37105L19.5625 9.26564ZM19.0393 9.98788C19.1773 9.69898 19.3491 9.36324 19.539 9.04441C19.5195 8.89216 19.5 8.79326 19.4961 8.77374V8.76983C19.3907 8.21156 19.0289 8.30266 18.5995 8.66703C18.8285 9.05743 18.9873 9.49728 19.0393 9.98788ZM4.32389 15.5654C4.46704 15.3533 4.69217 15.0969 5.02661 14.8822C4.75073 14.6584 4.41889 14.3499 4.11568 13.9582C3.81507 14.3005 3.7461 14.6883 3.76172 15.0123C3.85281 15.1307 4.05842 15.3754 4.32389 15.5654ZM5.12161 15.0162C4.80409 15.2166 4.59327 15.4574 4.45923 15.6552C4.70128 15.8035 4.84052 15.8712 4.90949 15.8998L4.97976 15.8491L4.98107 15.8504C4.98887 15.7983 5.00059 15.7072 5.0175 15.5485C5.03963 15.3637 5.08387 15.1633 5.12161 15.0162ZM8.27343 5.46055C8.27343 5.5074 8.27213 5.55555 8.26953 5.6037C8.26172 5.80801 8.2383 6.05396 8.20836 6.30902C8.38665 6.11642 8.58315 5.93033 8.79657 5.75986C8.68205 5.66876 8.54931 5.58548 8.39706 5.51391C8.35542 5.49569 8.31507 5.47747 8.27343 5.46055ZM8.12898 6.92064C8.10296 7.09893 8.07693 7.2694 8.05221 7.42426C8.13809 7.32015 8.23699 7.21995 8.33459 7.12886L8.12898 6.92064ZM7.7529 4.8255C7.73338 4.6329 7.70865 4.46373 7.68523 4.3336C7.40935 4.50537 7.1673 4.68756 6.95909 4.86584C7.19723 4.81639 7.464 4.79427 7.7529 4.8255ZM17.0236 7.0703C17.2917 6.91414 17.7653 6.60963 18.1297 6.21142C18.0256 6.17758 17.8929 6.16197 17.7237 6.18149C17.5454 6.20101 17.3632 6.24525 17.1875 6.30251C17.0613 6.46257 16.9234 6.66298 16.7815 6.91414C16.8622 6.96359 16.9429 7.01564 17.0236 7.0703ZM16.6696 6.84517C16.7698 6.66818 16.8687 6.51463 16.9637 6.38319C16.7295 6.47559 16.5174 6.5823 16.3599 6.66949C16.4614 6.72414 16.5655 6.7827 16.6696 6.84517ZM18.5448 10.5917C18.2963 10.7518 18.0152 10.8832 17.7003 10.9691C17.5844 11.3048 17.4127 11.5963 17.211 11.8488C17.902 11.6536 18.4342 11.2749 18.5448 10.5917ZM16.1803 11.1304C16.0814 11.1265 15.989 11.12 15.9005 11.1109C15.9695 11.1825 16.0346 11.2619 16.0944 11.3504C16.1257 11.2788 16.1543 11.2059 16.1803 11.1304ZM15.7418 10.96C15.8836 10.9821 16.0437 10.9964 16.222 11.0016C16.2779 10.809 16.3144 10.606 16.3248 10.3939C16.3703 9.44392 15.8953 8.78155 15.4047 8.35471C15.4685 8.66312 15.4932 8.9351 15.4893 9.17455C15.5283 9.47125 15.5505 9.78747 15.5427 10.1141C15.5375 10.3562 15.527 10.5826 15.5153 10.7908C15.5895 10.8416 15.6663 10.8975 15.7418 10.96ZM16.7464 10.9873C16.883 10.9769 17.0275 10.96 17.181 10.9378C17.2838 10.688 17.3502 10.4095 17.3606 10.0972C17.0873 10.4733 16.8622 10.8103 16.7464 10.9873ZM17.7471 10.8181C18.0516 10.7257 18.3223 10.5865 18.5618 10.4225C18.5644 10.3731 18.5657 10.3236 18.5644 10.2716C18.5526 9.8083 18.429 9.39187 18.2325 9.01969C18.0933 9.16934 17.9514 9.33461 17.8135 9.50508C17.8291 9.59097 17.8395 9.67816 17.846 9.76926C17.8759 10.1558 17.8369 10.5045 17.7471 10.8181ZM15.3787 9.89028C15.2824 10.1935 15.1379 10.4056 15.013 10.5435C15.1132 10.58 15.2303 10.6294 15.3553 10.6971C15.3644 10.5136 15.3722 10.3184 15.3774 10.1115C15.3787 10.036 15.3787 9.96315 15.3787 9.89028ZM14.6682 9.87336C14.6864 9.9085 14.7046 9.94363 14.7228 9.97877C14.7358 10.0061 14.7489 10.0334 14.7619 10.0608C14.8243 9.92932 14.9206 9.6209 14.8113 9.11338C14.6604 8.41327 14.3038 8.98455 14.3038 8.98455C14.4886 9.18886 14.607 9.60138 14.6682 9.87336ZM15.0013 10.891C15.0638 11.3478 15.0182 11.7512 14.9675 12.0088C15.0547 12.0141 15.1445 12.0193 15.2342 12.0232C15.2668 11.7824 15.3032 11.461 15.3318 11.0641C15.216 10.9886 15.1028 10.9326 15.0013 10.891ZM5.7944 8.31046C5.91932 8.17122 6.06768 8.03849 6.24336 7.91876C6.4776 7.7587 6.71314 7.64809 6.94087 7.57261C6.84197 7.58562 6.73786 7.60254 6.63376 7.62466L6.61814 7.64809C6.61814 7.64809 6.60903 7.64288 6.59472 7.63247C6.32404 7.69103 6.04295 7.78212 5.78269 7.91876C5.68118 7.97212 5.59139 8.02417 5.51071 8.07622C5.6057 8.1517 5.71502 8.23889 5.7944 8.31046ZM5.24524 10.8194C5.04093 11.2085 4.99798 11.5495 5.0175 11.8136C5.09298 11.5547 5.2114 11.2346 5.39489 10.8819C5.55625 10.5709 5.77488 10.3366 5.9948 10.1623C5.71241 10.2755 5.42742 10.4733 5.24524 10.8194ZM3.68754 13.2998C3.21776 13.8815 3.39605 14.6232 3.39605 14.6271L3.36611 14.6336C3.40776 14.7312 3.4507 14.8262 3.49365 14.9186C3.49365 14.5477 3.59775 14.1183 3.95432 13.7409C3.86062 13.603 3.77083 13.4559 3.68754 13.2998ZM4.22369 7.21344C4.17945 7.14968 4.10137 7.04557 3.98034 6.91153C3.60946 7.35529 3.38173 7.86411 3.2581 8.40026C3.75391 8.37683 4.16253 8.48484 4.40718 8.57463C4.4319 8.51347 4.46704 8.4419 4.51649 8.36252C4.40718 8.13478 4.2302 7.69754 4.22369 7.21344ZM12.3089 3.73629C12.2464 3.69204 12.1826 3.6491 12.1137 3.60615C12.2021 3.62437 12.2867 3.64389 12.3687 3.66471L12.3089 3.73629ZM15.488 11.176C15.4607 11.5221 15.4294 11.8071 15.3995 12.0284C15.4958 12.031 15.5908 12.0323 15.6884 12.031C15.7691 11.9243 15.8459 11.8123 15.9161 11.6939C15.8029 11.474 15.6494 11.3048 15.488 11.176ZM15.3449 13.8346L15.3943 13.7813V13.7774C15.3657 13.5496 15.3097 13.3557 15.2447 13.1957L15.2173 13.2048C15.1314 13.275 15.0482 13.3388 14.9675 13.3987C14.9636 13.478 14.9662 13.5678 14.9805 13.6706C14.987 13.7188 14.9935 13.7708 15 13.8242C15.1119 13.8294 15.2264 13.832 15.3449 13.8346ZM16.5577 14.1665C16.3274 14.1678 16.1035 14.1678 15.8927 14.1665C15.8771 14.3682 15.8329 14.5477 15.7808 14.7C15.9057 14.7403 16.0359 14.7807 16.1725 14.8197C16.3235 14.6479 16.4601 14.4332 16.5577 14.1665ZM15.7873 13.2568C15.8602 13.1358 15.9266 13.0031 15.9786 12.8625C15.8797 12.9172 15.786 12.9653 15.6988 13.007C15.7301 13.0837 15.76 13.167 15.7873 13.2568ZM15.5479 15.1828C15.5049 15.2466 15.4763 15.2817 15.4763 15.2817L15.2863 15.1242L15.216 15.1086L15.3774 15.4053C15.4516 15.3741 15.5752 15.3155 15.7183 15.2205L15.5479 15.1828ZM5.33503 16.2564L5.36756 16.2902C5.54714 16.4347 5.83214 16.3852 5.83214 16.3852C5.83214 16.3852 5.68769 16.2499 5.58358 16.1367C5.47948 16.0234 5.33373 15.7254 5.33373 15.7254C5.33373 15.7254 5.2075 16.0898 5.33503 16.2564ZM7.82708 17.982C7.70215 17.9585 7.57332 17.9299 7.44058 17.8961C7.36901 18.0939 7.24148 18.3502 7.01505 18.5715C7.09313 18.6027 7.17381 18.6326 7.25449 18.6599C7.43798 18.4478 7.62927 18.2201 7.82708 17.982ZM2.77531 17.4159C2.77141 17.3703 2.80524 17.3313 2.84949 17.3274C2.89503 17.3235 2.93407 17.356 2.93928 17.4016C2.93928 17.4081 3.12146 19.4368 4.25492 18.6534C3.39214 18.1485 3.04078 17.3391 3.03948 17.3365C3.00955 17.2701 3.03948 17.192 3.10585 17.1634C3.17222 17.1335 3.2503 17.1634 3.27893 17.2298C3.28023 17.2324 3.62248 18.0236 4.47355 18.4765C4.60368 18.358 4.74422 18.2058 4.89648 18.0145L4.93942 17.9598C4.7234 17.8245 4.50348 17.6631 4.29266 17.4679C3.78124 16.9981 3.4507 16.4269 3.2529 15.9948C2.79483 16.2928 2.31724 16.8433 2.44868 17.8258C2.51505 18.3229 2.71024 18.6977 2.97051 18.9566C3.19434 19.1805 3.46762 19.3197 3.7461 19.3796C4.02459 19.4381 4.30958 19.4186 4.55943 19.3236C4.75203 19.2507 4.92381 19.1323 5.05394 18.9723C4.8223 18.9189 4.61279 18.8408 4.4254 18.7471C2.99914 19.917 2.77531 17.425 2.77531 17.4159ZM5.12551 17.7256L5.2088 17.6202C4.7195 17.1829 4.18335 16.6156 3.70967 15.8595L3.62118 15.7996C3.58604 15.8139 3.5509 15.8309 3.51317 15.8491C3.69665 16.2564 4.00767 16.8016 4.49567 17.2493C4.70128 17.4393 4.916 17.5968 5.12551 17.7256ZM5.37147 17.4133L5.64084 17.0684L5.18798 17.2428C5.25044 17.3027 5.3116 17.3586 5.37147 17.4133ZM6.22123 16.3149C6.40212 16.0781 6.56739 15.8582 6.71574 15.6591C6.53876 15.5511 6.22644 15.4183 5.9961 15.6409C5.74104 15.8855 6.04816 16.1809 6.22123 16.3149ZM5.33633 17.7321L5.27126 17.8115C5.41441 17.8922 5.55365 17.9611 5.68248 18.0184C5.57187 17.9312 5.45605 17.8362 5.33633 17.7321ZM7.92337 18.1225C7.7529 18.3294 7.58503 18.5272 7.42496 18.7146C7.59023 18.764 7.7568 18.8057 7.91687 18.8408C7.91947 18.5949 7.92207 18.3541 7.92337 18.1225ZM4.74553 8.07232C4.80799 8.00595 4.87956 7.93828 4.96285 7.86931C4.9212 7.57131 4.86134 6.78921 5.23743 6.07738C5.16455 6.0956 5.09298 6.11772 5.02141 6.14505C4.3291 6.74757 4.55813 7.62206 4.74553 8.07232ZM6.51794 7.14707C6.62334 7.12495 6.72745 7.10673 6.82765 7.09242C6.7704 6.86469 6.74957 6.54586 6.90053 6.18019C6.74957 6.13204 6.59341 6.09039 6.43595 6.06046C6.31493 6.59011 6.40342 6.93626 6.51794 7.14707ZM4.28876 8.81148C4.05582 8.72819 3.67063 8.63189 3.20475 8.66703C3.16961 8.87654 3.15009 9.08866 3.14098 9.30078C3.13448 9.48426 3.13578 9.66645 3.14619 9.84864C3.53659 9.30598 4.00507 8.97674 4.28876 8.81148ZM1.41022 10.2494C1.42713 10.3379 1.45446 10.4212 1.4883 10.498C1.52864 10.5878 1.57939 10.6672 1.63535 10.7348C1.75897 10.8832 1.89301 10.9639 2.00362 10.9834C2.04787 10.9912 2.08561 10.9886 2.11554 10.9769C2.13896 10.9678 2.15848 10.9509 2.17149 10.9261C2.19622 10.8806 2.20012 10.8077 2.1767 10.7114C2.13245 10.5344 1.85267 10.3731 1.55466 10.2846C1.50521 10.2716 1.45706 10.2599 1.41022 10.2494ZM1.24755 10.6073C1.19419 10.4889 1.15515 10.3588 1.13824 10.2208C1.04454 10.2208 0.963859 10.2351 0.909203 10.2651V10.2664C0.871465 10.2872 0.848041 10.3171 0.845438 10.3601C0.835028 10.5917 1.08488 10.6633 1.28529 10.6841C1.27227 10.6581 1.25926 10.6333 1.24755 10.6073ZM9.44853 5.7078C9.49928 5.76766 9.54613 5.83013 9.58908 5.89129C9.94434 5.71301 10.4128 5.55815 11.0205 5.49699C10.9594 5.41761 10.893 5.33953 10.8214 5.26405C10.7785 5.26795 10.7342 5.27316 10.69 5.27836C10.2306 5.33302 9.81681 5.48918 9.44853 5.7078ZM9.42511 6.63956C9.39908 6.56928 9.36915 6.49901 9.33402 6.42614C9.19607 6.52894 9.09717 6.62524 9.03081 6.69942C9.13491 6.6812 9.27025 6.65908 9.42511 6.63956ZM11.9172 5.44624C12.1124 5.43973 12.2945 5.43713 12.4637 5.43582C12.2685 5.37076 12.0551 5.3174 11.8209 5.28357C11.8547 5.33692 11.8859 5.39158 11.9172 5.44624ZM19.2918 15.7163C19.0875 15.7124 18.8754 15.702 18.6567 15.6851C18.7361 15.8139 18.8532 15.9467 18.9925 15.9467C19.1343 15.9454 19.2319 15.8282 19.2918 15.7163ZM2.89243 10.9639C2.87421 11.0263 2.8573 11.0901 2.84168 11.1552L2.92106 11.1057C2.91195 11.0589 2.90154 11.012 2.89243 10.9639ZM1.90863 13.7969C1.85787 13.6069 1.82404 13.4117 1.80582 13.2191C1.7876 13.033 1.7863 12.8482 1.79931 12.6738C1.71993 12.8951 1.6926 13.1358 1.74986 13.3922C1.78109 13.5262 1.83575 13.6615 1.90863 13.7969ZM14.4951 13.1345C14.5654 13.0863 14.6421 13.033 14.7202 12.9744C14.7332 12.9484 14.7423 12.9185 14.7462 12.8859C14.7775 12.64 14.5315 12.5515 14.5315 12.5515C14.5315 12.5515 14.5563 12.9029 14.4691 13.0564C14.4404 13.1072 14.4574 13.1319 14.4951 13.1345ZM6.40342 14.3265C6.40342 14.3265 6.5791 14.4905 6.73136 14.4775C6.88231 14.4645 6.94607 14.2758 6.94607 14.2758C6.94607 14.2758 6.6806 14.3447 6.40342 14.3265ZM12.7552 15.8322C12.7864 15.8387 13.1274 15.9714 13.4423 15.6304C13.7572 15.2895 13.631 14.8483 13.631 14.8483C13.631 14.8483 13.5295 15.2023 13.2211 15.473C12.9127 15.7437 12.7552 15.8322 12.7552 15.8322ZM12.6732 15.2257C12.6732 15.2257 12.8684 15.2947 13.0766 15.1372C13.2849 14.9798 13.1651 14.7143 13.1651 14.7143L12.6732 15.2257ZM13.6505 16.0156C13.6505 16.0156 14.0735 15.9909 14.2361 15.7502C14.4001 15.5107 14.1411 15.119 14.1411 15.119C14.1411 15.119 14.1541 15.2895 14.0526 15.6044C13.9524 15.9206 13.6505 16.0156 13.6505 16.0156ZM13.9329 10.3483C13.9329 10.3483 13.9485 10.7609 14.1659 10.822C14.3832 10.8819 14.3298 10.5917 14.3298 10.5917C14.3298 10.5917 14.2517 10.6203 14.1281 10.5891C14.0045 10.5566 13.9329 10.3483 13.9329 10.3483ZM13.7937 9.63001C13.7937 9.63001 13.7117 9.94494 13.8444 10.0842C13.9772 10.2234 14.2504 10.2794 14.2504 10.2794C14.2504 10.2794 14.0305 9.84733 13.7937 9.63001ZM13.9902 8.71388C13.9902 8.71388 14.1164 8.28444 13.9524 8.08924C13.7885 7.89404 13.3799 7.96301 13.3799 7.96301L13.9902 8.71388ZM12.9504 8.62539C12.9504 8.62539 12.9947 8.2467 12.6225 7.855C12.2503 7.4633 11.8976 7.83027 11.8976 7.83027C11.8976 7.83027 12.3895 8.00725 12.5587 8.17122C12.7305 8.33519 12.9504 8.62539 12.9504 8.62539ZM6.01562 11.6041C6.04425 11.4909 6.22644 11.2983 6.22644 11.2983C6.22644 11.2983 6.01302 11.2697 5.97788 11.3738C5.94405 11.4779 6.01562 11.6041 6.01562 11.6041ZM5.25044 13.7708C5.25044 13.7708 5.16846 13.9036 5.34804 14.0415C5.52762 14.1808 5.96227 13.9283 5.96227 13.9283C5.96227 13.9283 5.82303 13.9413 5.63433 13.9088C5.44564 13.8776 5.25044 13.7708 5.25044 13.7708ZM6.29151 13.3401C6.29151 13.3401 6.20302 13.5548 6.20952 13.8255C6.21603 14.0975 6.42424 14.1977 6.42424 14.1977C6.42424 14.1977 6.2876 13.8658 6.29151 13.3401ZM8.49075 15.6044C8.49075 15.6044 8.55322 16.0404 8.96964 16.1601C9.05033 16.1835 9.12841 16.1926 9.20258 16.1926H9.20648H9.21039H9.21429H9.2169H9.2208H9.2247H9.22861H9.23251H9.23642H9.24032H9.24422H9.24813H9.25073H9.25203H9.25594H9.25984H9.26374H9.26765H9.27025H9.27155H9.27546H9.27936H9.28326H9.28717H9.28977H9.29107H9.29498H9.29888H9.30278H9.30669H9.30799H9.31059H9.3145H9.3184H9.3223H9.32621H9.32751H9.33011H9.33402H9.33792H9.34182H9.34573H9.34833H9.35223H9.35614H9.36004H9.36265H9.36655L9.37045 16.1913H9.37436H9.37826H9.38086L9.38477 16.19H9.38867H9.39258L9.39518 16.1887H9.39778H9.39908H9.40168H9.40559L9.40819 16.1874L9.41079 16.1861H9.4121H9.4134L9.4199 16.1848L9.42251 16.1835L9.42511 16.1822H9.42641H9.42901L9.43162 16.1809L9.43422 16.1796C9.62812 16.1354 9.75825 16.0456 9.75695 16.0456C9.75695 16.0456 9.67627 16.0456 9.53963 16.0261H9.53702H9.53572H9.53442H9.53182H9.52922H9.52661H9.52401H9.52141H9.5188H9.5162H9.5136H9.5123H9.511H9.50839H9.50579H9.50319H9.50059H9.49798H9.49538H9.49278H9.49018H9.48887H9.48757H9.48497H9.48237H9.47976H9.47716H9.47456H9.47196H9.46935H9.46675H9.46545H9.46415H9.46155H9.45894H9.45634H9.45374H9.45114H9.44853H9.44593H9.44333H9.44203H9.44073H9.43812H9.43552H9.43292H9.43031H9.42771H9.42511H9.42251L9.4199 16.0247H9.4186H9.4173H9.4147L9.4121 16.0234H9.40949H9.40689H9.40429H9.40168L9.39908 16.0221L9.39648 16.0208H9.39518H9.39258L9.38997 16.0195L9.38737 16.0182H9.38477H9.38217H9.37956L9.37696 16.0169H9.37436H9.37175C9.3158 16.0052 9.25463 15.9909 9.18697 15.9727C8.81479 15.8452 8.49075 15.6044 8.49075 15.6044ZM11.0856 16.8836C11.0856 16.8836 10.9724 17.0385 11.1299 17.1335C11.2873 17.2285 11.4643 17.1738 11.329 17.1114C11.1936 17.0476 11.0856 16.8836 11.0856 16.8836ZM11.3381 16.5583C11.3381 16.5583 11.722 17.0632 12.1006 17.0762C12.4793 17.0892 12.806 16.1549 12.806 16.1549C12.806 16.1549 12.6615 16.3384 12.2763 16.5206C11.8924 16.7027 11.3381 16.5583 11.3381 16.5583Z" fill="#FEFEFE"/>
</svg>
