<svg width="13" height="17" viewBox="0 0 13 17" fill="none" xmlns="http://www.w3.org/2000/svg">
<g id="Attachment">
<g id="Vector">
<path d="M8.53106 1.79138C8.99204 1.56223 9.53381 1.49405 10.0701 1.63774C11.237 1.95042 11.9295 3.14991 11.6168 4.31687L9.83746 10.9576C9.52478 12.1246 8.32529 12.8171 7.15834 12.5044C5.99138 12.1917 5.29885 10.9922 5.61154 9.82527L6.32329 7.16898C6.4037 6.8689 6.22562 6.56046 5.92554 6.48006C5.62547 6.39965 5.31703 6.57773 5.23663 6.87781L4.52487 9.5341C4.05138 11.3012 5.10006 13.1176 6.86716 13.5911C8.63427 14.0646 10.4506 13.0159 10.9241 11.2488L12.7035 4.60804C13.177 2.84093 12.1283 1.02457 10.3612 0.551071C9.55013 0.333739 8.72731 0.437491 8.03028 0.783988C7.60288 0.996453 7.22186 1.30053 6.91847 1.67878C6.72409 1.92111 6.76296 2.27514 7.0053 2.46952C7.24763 2.6639 7.60166 2.62502 7.79604 2.38269C7.99597 2.13344 8.24781 1.93219 8.53106 1.79138Z" fill="black"/>
<path d="M3.667 6.45722C3.97968 5.29027 5.17917 4.59774 6.34613 4.91043C7.51308 5.22311 8.20561 6.4226 7.89292 7.58956L7.18117 10.2459C7.10076 10.5459 7.27884 10.8544 7.57892 10.9348C7.87899 11.0152 8.18743 10.8371 8.26784 10.537L8.97959 7.88073C9.45308 6.11362 8.4044 4.29726 6.6373 3.82376C4.87019 3.35027 3.05382 4.39895 2.58033 6.16605L0.800949 12.8068C0.327454 14.5739 1.37613 16.3903 3.14324 16.8638C3.95433 17.0811 4.77715 16.9773 5.47418 16.6308C5.90158 16.4184 6.2826 16.1143 6.58599 15.7361C6.78037 15.4937 6.7415 15.1397 6.49916 14.9453C6.25683 14.7509 5.9028 14.7898 5.70842 15.0321C5.50849 15.2814 5.25665 15.4826 4.9734 15.6234C4.51242 15.8526 3.97065 15.9208 3.43441 15.7771C2.26745 15.4644 1.57493 14.2649 1.88762 13.098L3.667 6.45722Z" fill="black"/>
</g>
</g>
</svg>
