<svg xmlns="http://www.w3.org/2000/svg" width="30" height="27" viewBox="0 0 30 27" fill="none">
    <path fill-rule="evenodd" clip-rule="evenodd" d="M17.0352 9.90546C16.6743 11.695 15.5144 12.4449 13.781 12.4701C12.1764 12.4953 11.1776 10.8191 11.01 9.43286C10.836 8.00246 11.4676 6.16877 12.9304 5.60165C13.7487 5.28659 14.8507 5.29919 15.5788 5.8096C16.9579 6.78 17.3509 8.34903 17.0352 9.90546ZM13.6134 2.58962C11.9315 2.75976 10.5461 3.38359 9.41837 4.63125C8.99306 5.10385 8.252 5.97343 8.31644 6.62247C8.42599 7.76301 8.69664 9.80464 8.69664 10.8822C8.69664 12.2748 8.30355 11.966 9.33459 13.138C10.7716 14.7638 12.7693 15.5325 14.9731 15.2364C18.3627 14.789 20.7405 11.5501 20.3345 8.26711C20.1219 6.55315 19.529 5.3559 18.2531 4.15865C17.0996 3.07482 15.1986 2.42579 13.6134 2.58962Z" fill="#F86161"/>
    <path fill-rule="evenodd" clip-rule="evenodd" d="M3.21878 0.327669C3.43144 2.94272 3.69564 5.89804 4.04362 8.50048C4.13383 9.17473 4.47537 11.5188 3.84385 11.9788C2.87081 12.6783 2.43261 11.4558 2.13619 10.9454C1.96865 11.0021 0.434971 12.8862 0.138546 13.1698C-0.0612181 13.3588 -0.01611 13.3336 0.0934381 13.4407C0.20943 13.5541 0.396307 13.8503 0.795835 14.1717C1.7431 14.9278 2.61949 15.2744 3.85674 15.2807C5.98326 15.287 7.65871 14.0772 8.03246 11.9788C8.07757 11.7079 8.07112 11.4936 8.12267 11.2479C8.39332 10.0254 7.25273 1.78327 7.06586 0L3.21878 0.327669Z" fill="#F86161"/>
    <path fill-rule="evenodd" clip-rule="evenodd" d="M19.5739 14.5623C20.5533 14.7577 21.9904 15.1358 22.9312 15.2114L23.1374 14.2221C23.1954 13.8125 23.4467 12.6972 23.5369 12.2309C23.6207 11.7835 24.0911 9.33854 24.1555 9.23772C24.2586 9.07389 24.8257 8.49417 25.0255 8.30513C25.6441 7.7191 29.633 3.57913 30.0003 2.9553C29.7941 2.9553 29.8907 2.949 29.7554 2.91119C29.0917 2.80407 26.0887 2.16764 25.9663 2.23695C25.6248 2.67174 23.1761 6.10597 22.9827 6.14377C22.8345 5.54515 21.9195 1.64463 21.7326 1.42408C21.6682 1.35477 21.5844 1.34847 21.5006 1.34216L18.0724 0.70573C17.9113 0.661621 17.9629 0.661621 17.7695 0.661621C17.8018 0.84436 17.9951 1.31066 18.0724 1.4997C18.3753 2.22435 18.7555 3.27037 19.0326 4.01393C19.097 4.19036 19.7285 4.91502 19.9992 5.36241C20.3149 5.88542 20.534 6.42103 20.6951 7.00075C20.8498 7.64349 21.0173 8.35554 20.9851 9.01088C20.9529 9.74813 20.8175 10.2711 20.6629 10.9895C20.4631 11.7457 20.0829 12.3065 19.9992 12.6278C19.8767 12.9933 19.6705 14.3292 19.5739 14.5623Z" fill="#F86161"/>
    <path fill-rule="evenodd" clip-rule="evenodd" d="M4.75122 24.0206V19.0111C5.77582 19.0111 6.73598 19.03 7.39971 19.8492C7.92812 20.4982 8.01189 22.4957 7.43193 23.1636C7.28372 23.3338 7.36749 23.2897 7.08396 23.5291C6.89708 23.693 6.61999 23.7875 6.388 23.8694C5.85959 24.0395 5.29252 24.0206 4.75122 24.0206ZM2.25095 16.9316L2.23162 19.0048C2.23162 21.1094 2.19295 23.3905 2.23162 25.4573C2.2445 26.245 1.85786 26.1379 3.73952 26.1379C4.59657 26.1379 5.56961 26.1883 6.41378 26.0623C7.49637 25.9047 8.22455 25.6905 9.0816 24.9091C9.83555 24.2223 10.3575 22.8549 10.3704 21.8656C10.3897 20.5927 10.2093 19.5341 9.41669 18.4881C8.77229 17.65 7.61237 17.0892 6.56199 16.9757C5.50517 16.8623 4.42258 16.8749 3.36576 16.8749L2.25095 16.9316Z" fill="black"/>
    <path fill-rule="evenodd" clip-rule="evenodd" d="M11.7305 16.9125V26.1439C12.3426 26.1439 17.0661 26.1754 17.2401 26.125C17.2916 25.9612 17.2788 24.2094 17.2272 24.0204H14.1599V22.5459H17.0532C17.1434 22.1804 17.0983 20.9705 17.079 20.479H16.7375H14.1599C14.1599 20.227 14.1212 19.1495 14.1792 18.9982C14.3467 18.9415 16.8277 18.9793 17.2272 18.9793C17.2916 18.7336 17.2916 17.133 17.2272 16.8873C16.557 16.8873 11.9496 16.8306 11.7305 16.9125Z" fill="black"/>
    <path fill-rule="evenodd" clip-rule="evenodd" d="M22.3508 26.1442H24.2776C24.3742 25.7031 26.9518 19.6286 27.2998 18.6708L27.9958 16.919C27.7251 16.856 25.953 16.8938 25.5342 16.8938C25.3151 16.8938 25.3408 17.0009 25.2506 17.2404C25.2442 17.2593 25.2184 17.3223 25.212 17.3412C24.6062 19.1623 23.9425 21.3615 23.2916 23.1069C22.7439 21.0338 21.9577 18.9607 21.2424 16.9316C21.0169 16.8371 19.0257 16.8938 18.6133 16.8938C18.6068 17.0892 22.0157 25.3187 22.3508 26.1442Z" fill="black"/>
</svg>
