<svg width="20" height="19" viewBox="0 0 20 19" fill="none" xmlns="http://www.w3.org/2000/svg">
<path id="Vector" d="M16.0478 8.65397C17.53 8.65397 18.6459 8.05865 19.4686 7.02222L18.369 6.21335C18.0974 6.55847 17.7463 6.83806 17.3435 7.03008C16.9407 7.22211 16.4971 7.32131 16.0478 7.31988C14.4391 7.31988 13.2735 6.05642 13.2735 4.50609C13.2735 2.95576 14.4201 1.62115 16.0936 1.62115C16.8375 1.62115 17.3633 1.79046 17.822 2.0644V3.4276H19.2057V1.43996L18.9406 1.23881C18.1799 0.661821 17.0182 0.35553 16.0472 0.35553C13.6734 0.35553 11.7426 2.21701 11.7426 4.50557C11.7426 6.79197 13.6723 8.65397 16.0472 8.65397H16.0478ZM18.9188 16.8397L18.8696 14.9292V10.2669H15.9834V11.6015H17.412V14.7647C17.412 16.1274 16.3325 17.0921 15.2434 17.0921C14.1544 17.0921 13.5862 16.3641 13.5862 15.002V10.2663H10.8902V11.6009H12.1285V15.2333C12.1285 17.0818 13.2036 18.3555 15.121 18.3555C16.2228 18.3555 17.0618 17.7661 17.5624 16.8575H17.5848L17.7823 18.128H20V16.8413H18.9205V16.8386L18.9188 16.8397ZM11.4238 0.551279H9.01865L6.92676 6.40747H6.89431L4.8136 0.551279H2.25075V1.88644H3.69214L6.17278 8.56123H7.49056V8.5596L10.0775 1.88698H11.4227V0.551822L11.4238 0.551279ZM0 18.1452H1.42518V16.7718H0.000559332V18.1452H0ZM5.50382 11.8145H5.48816L5.39866 10.2669H2.85483V11.4834H4.20841V16.8403H2.85483V18.1274H9.14171V16.8656H5.64141V13.6328C5.7997 12.4627 6.70974 11.4634 7.95145 11.4634H7.97382L7.94865 12.6595H9.33244V10.2447H8.23839C6.98549 10.2415 6.05588 10.8951 5.50326 11.815L5.50382 11.8145Z" fill="#0E0E0E"/>
</svg>
